<?xml version="1.0" encoding="UTF-8"?><svg id="Layer_1" xmlns="http://www.w3.org/2000/svg" viewBox="0 0 128.25 128.25"><defs><style>.cls-1{fill:#002147;}.cls-2{fill:#fff;}</style></defs><path class="cls-1" d="M66.53,47.49c0,13.02,34.78,5.28,61.72-2.67v-2.51c-26.94,5.76-61.72,10.68-61.72-2.34C66.53,17.11,28.71,25.73,0,34.4v2.07c28.71-6.44,66.53-11.84,66.53,11.03"/><path class="cls-1" d="M66.53,32.46c0,13.02,34.78,10.92,61.72,7.34v-2.51c-26.94,1.39-61.72,.66-61.72-12.35C66.53,2.07,28.71,17.15,0,30.27v2.07c28.71-10.89,66.53-22.75,66.53,.12"/><path class="cls-1" d="M66.53,17.43c0,13.01,34.78,16.56,61.72,17.36v-2.51c-26.94-2.98-61.72-9.35-61.72-22.37C66.53-12.96,28.71,8.57,0,26.14v2.07C28.71,12.86,66.53-5.44,66.53,17.43"/><path class="cls-1" d="M66.53,55.01c0-22.87-37.81-20.7-66.53-16.48v89.72H128.25V47.33c-26.94,10.13-61.72,20.69-61.72,7.68Z"/><path class="cls-2" d="M30.06,109.17c3.92,0,6.44-2.29,6.44-7v-4.35c0-4.7-2.52-7-6.44-7h-4.88v18.34h4.88Zm-10.17-22.97h10.17c7.28,0,12.05,4.62,12.05,13.8s-4.76,13.8-12.05,13.8h-10.17v-27.59Z"/><path class="cls-2" d="M45.75,109.68l3.56-3.4c1.92,2.21,4.28,3.4,7.16,3.4,3.24,0,4.92-1.54,4.92-3.87,0-1.86-.88-3-3.8-3.52l-2.64-.39c-5.64-.87-8.37-3.52-8.37-8.03,0-4.94,3.88-8.14,10.13-8.14,4.2,0,7.32,1.42,9.57,4.07l-3.6,3.36c-1.36-1.7-3.28-2.85-6.24-2.85s-4.56,1.19-4.56,3.24,1.2,2.96,3.88,3.44l2.6,.47c5.64,.99,8.29,3.48,8.29,8.02,0,5.22-3.8,8.78-10.49,8.78-4.76,0-8.05-1.86-10.41-4.59"/><path class="cls-2" d="M77.21,98.77h6.8c2.04,0,3.28-1.11,3.28-3.12v-1.82c0-2.02-1.24-3.08-3.28-3.08h-6.8v8.02Zm-5.28,15.02v-27.59h12.57c5.16,0,8.29,3.44,8.29,8.54s-3.12,8.54-8.29,8.54h-7.28v10.51h-5.28Z"/><polygon class="cls-2" points="95.66 113.79 95.66 109.6 99.34 109.6 99.34 90.39 95.66 90.39 95.66 86.2 108.35 86.2 108.35 90.39 104.63 90.39 104.63 109.6 108.35 109.6 108.35 113.79 95.66 113.79"/></svg>