<?xml version="1.0" encoding="UTF-8"?><svg id="Layer_1" xmlns="http://www.w3.org/2000/svg" viewBox="0 0 269.32 128.25"><defs><style>.cls-1{fill:#002147;}.cls-2{fill:#fff;}.cls-3{fill:#17243d;}</style></defs><g><path class="cls-1" d="M66.53,47.49c0,13.02,34.78,5.28,61.72-2.67v-2.51c-26.94,5.76-61.72,10.68-61.72-2.34C66.53,17.11,28.71,25.73,0,34.4v2.07c28.71-6.44,66.53-11.84,66.53,11.03"/><path class="cls-1" d="M66.53,32.46c0,13.02,34.78,10.92,61.72,7.34v-2.51c-26.94,1.39-61.72,.66-61.72-12.35C66.53,2.07,28.71,17.15,0,30.27v2.07c28.71-10.89,66.53-22.75,66.53,.12"/><path class="cls-1" d="M66.53,17.43c0,13.01,34.78,16.56,61.72,17.36v-2.51c-26.94-2.98-61.72-9.35-61.72-22.37C66.53-12.96,28.71,8.57,0,26.14v2.07C28.71,12.86,66.53-5.44,66.53,17.43"/><path class="cls-1" d="M66.53,55.01c0-22.87-37.81-20.7-66.53-16.48v89.72H128.25V47.33c-26.94,10.13-61.72,20.69-61.72,7.68Z"/><path class="cls-2" d="M30.06,109.17c3.92,0,6.44-2.29,6.44-7v-4.35c0-4.7-2.52-7-6.44-7h-4.88v18.34h4.88Zm-10.17-22.97h10.17c7.28,0,12.05,4.62,12.05,13.8s-4.76,13.8-12.05,13.8h-10.17v-27.59Z"/><path class="cls-2" d="M45.75,109.68l3.56-3.4c1.92,2.21,4.28,3.4,7.16,3.4,3.24,0,4.92-1.54,4.92-3.87,0-1.86-.88-3-3.8-3.52l-2.64-.39c-5.64-.87-8.37-3.52-8.37-8.03,0-4.94,3.88-8.14,10.13-8.14,4.2,0,7.32,1.42,9.57,4.07l-3.6,3.36c-1.36-1.7-3.28-2.85-6.24-2.85s-4.56,1.19-4.56,3.24,1.2,2.96,3.88,3.44l2.6,.47c5.64,.99,8.29,3.48,8.29,8.02,0,5.22-3.8,8.78-10.49,8.78-4.76,0-8.05-1.86-10.41-4.59"/><path class="cls-2" d="M77.21,98.77h6.8c2.04,0,3.28-1.11,3.28-3.12v-1.82c0-2.02-1.24-3.08-3.28-3.08h-6.8v8.02Zm-5.28,15.02v-27.59h12.57c5.16,0,8.29,3.44,8.29,8.54s-3.12,8.54-8.29,8.54h-7.28v10.51h-5.28Z"/><polygon class="cls-2" points="95.66 113.79 95.66 109.6 99.34 109.6 99.34 90.39 95.66 90.39 95.66 86.2 108.35 86.2 108.35 90.39 104.63 90.39 104.63 109.6 108.35 109.6 108.35 113.79 95.66 113.79"/></g><rect class="cls-1" x="141.07" width="128.25" height="128.25"/><g><g><path class="cls-2" d="M169.17,106.6c0,4.92-3.8,8.49-8.55,8.49s-8.55-3.61-8.55-8.32,3.8-8.5,8.55-8.5,8.55,3.62,8.55,8.32m-2.71,.09c0-4.47-2.17-7.6-5.83-7.6-3.98,0-5.83,3.75-5.83,7.6,0,4.47,2.17,7.59,5.83,7.59,3.98,0,5.83-3.75,5.83-7.59"/><path class="cls-2" d="M221.35,106.6c0,4.92-3.8,8.49-8.54,8.49s-8.55-3.61-8.55-8.32,3.8-8.5,8.55-8.5,8.54,3.62,8.54,8.32m-2.71,.09c0-4.47-2.17-7.6-5.83-7.6-3.98,0-5.83,3.75-5.83,7.6,0,4.47,2.17,7.59,5.83,7.59,3.98,0,5.83-3.75,5.83-7.59"/><path class="cls-2" d="M227.95,106.77h2.03c3.08,0,3.75-1.94,3.75-3.8,0-1.4-.63-2.71-2.08-3.34-.77-.32-1.49-.32-2.49-.32h-1.22v7.46Zm3.75,2.62c-.95-1.35-1.31-1.85-2.49-1.85h-1.27v5.52c0,.45,.18,.67,.68,.77l1.85,.41v.59h-7.28v-.59l1.67-.41c.5-.13,.68-.31,.68-.77v-12.75c0-.45-.18-.63-.68-.77l-1.67-.41v-.59h7.1c1.49,0,2.53,.14,3.39,.45,1.76,.68,2.76,2.36,2.76,3.93,0,1.99-1.49,3.67-3.98,4.25v.09c.5,.23,.77,.55,2.53,2.85l2.21,2.94c.32,.45,.73,.72,1.22,.81l1.63,.36v.59h-3.89c-.45,0-.68-.14-1.09-.68l-3.39-4.75Z"/><path class="cls-2" d="M199.83,104.11h.68v5.43h-.68l-.41-1.63c-.14-.59-.5-.82-1.04-.82h-3.94v5.97c0,.45,.18,.68,.68,.77l1.85,.41v.59h-7.28v-.59l1.67-.41c.5-.13,.68-.31,.68-.77v-12.75c0-.45-.18-.63-.68-.77l-1.67-.41v-.59h12.3v4.07h-.68l-.77-2.45c-.18-.63-.45-.86-1-.86h-5.11v7.01h3.94c.54,0,.86-.22,1.04-.81l.41-1.4Z"/><path class="cls-2" d="M241.38,114.83v-.59l1.67-.41c.5-.13,.68-.31,.68-.77v-12.75c0-.45-.18-.63-.68-.77l-1.67-.41v-.59h7.64c2.08,0,3.57,.27,4.79,.82,3.07,1.4,4.48,4.43,4.48,7.41s-1.09,5.61-3.84,7.05c-1.27,.68-3.03,1-5.34,1h-7.73Zm4.75-15.51v14.01c0,.59,.14,.73,.72,.73h1.99c1.9,0,3.3-.28,4.3-1,1.67-1.22,2.44-3.43,2.44-6.24s-.77-5.47-3.03-6.78c-.95-.54-2.17-.73-4.07-.73h-2.35Z"/><path class="cls-2" d="M175.55,114.23v.59h-5.74v-.59l1.44-.36c.55-.14,.91-.32,1.27-.72l4.97-6.24-4.97-6.6c-.32-.45-.72-.68-1.22-.81l-1.36-.36v-.59h7.14v.59l-1.54,.32c-.55,.09-.41,.32-.14,.68l3.66,5.24h.09l3.76-5.24c.27-.36,.36-.5-.14-.64l-1.45-.36v-.59h5.74v.59l-1.45,.36c-.54,.14-.9,.32-1.27,.72l-4.7,5.93,5.24,6.92c.32,.45,.72,.67,1.22,.81l1.36,.36v.59h-7.14v-.59l1.54-.31c.54-.09,.45-.27,.18-.64l-3.98-5.6h-.09l-4.02,5.57c-.27,.36-.36,.49,.13,.63l1.45,.36Z"/><path class="cls-2" d="M158.42,90.88c-.45,.45-1.12,.75-2.07,.75-.82,0-1.58-.26-2.1-.77-.7-.7-.67-1.6-.67-2.56v-4.53h.92v4.86c0,.61-.02,1.21,.46,1.69,.33,.33,.84,.51,1.42,.51s1.03-.2,1.32-.48c.53-.53,.5-1.11,.5-2.5v-4.08h.91v3.84c0,1.46,.06,2.52-.69,3.27"/></g><polygon class="cls-2" points="166.61 91.49 162.9 85.17 162.92 91.49 162.07 91.49 162.07 83.78 163.02 83.78 166.75 90.13 166.72 83.78 167.57 83.78 167.57 91.49 166.61 91.49"/><rect class="cls-2" x="170.79" y="83.78" width=".93" height="7.71"/><polygon class="cls-2" points="177.48 91.49 176.42 91.49 173.76 83.78 174.73 83.78 176.98 90.58 179.3 83.78 180.19 83.78 177.48 91.49"/><polygon class="cls-2" points="182.29 91.49 182.29 83.78 186.48 83.78 186.48 84.55 183.2 84.55 183.2 87.09 186.28 87.09 186.28 87.84 183.2 87.84 183.2 90.7 186.58 90.7 186.58 91.49 182.29 91.49"/><path class="cls-2" d="M192.44,84.94c-.44-.44-1.02-.42-1.65-.42h-.85v2.88h.31c.78,0,1.62,.04,2.15-.49,.25-.26,.4-.61,.4-1.01,0-.43-.17-.78-.35-.96m.84,6.55l-.89-2c-.55-1.23-.8-1.35-1.92-1.35h-.54v3.35h-.91v-7.71h1.66c1.03,0,1.81,0,2.41,.6,.38,.39,.6,.9,.6,1.54,0,.54-.16,.98-.48,1.32-.28,.3-.74,.55-1.24,.61,.27,.02,.5,.16,.64,.31,.21,.21,.36,.53,.59,1.03l1.02,2.3h-.96Z"/><rect class="cls-2" x="203.25" y="83.78" width=".93" height="7.71"/><polygon class="cls-2" points="209.48 84.55 209.48 91.49 208.55 91.49 208.55 84.55 206.26 84.55 206.26 83.78 211.76 83.78 211.76 84.55 209.48 84.55"/><polygon class="cls-2" points="216.2 88.44 216.2 91.49 215.28 91.49 215.28 88.44 212.83 83.78 213.89 83.78 215.8 87.39 217.64 83.78 218.65 83.78 216.2 88.44"/><path class="cls-2" d="M227.3,84.42c-1.51,0-2.49,1.28-2.49,3.2s1.09,3.22,2.54,3.22c1.61,0,2.51-1.37,2.51-3.28s-1.06-3.14-2.56-3.14m0,7.21c-2,0-3.45-1.65-3.45-3.97s1.44-4.04,3.53-4.04,3.44,1.64,3.44,3.96-1.43,4.04-3.51,4.04"/><polygon class="cls-2" points="234.27 84.55 234.27 87.09 237.25 87.09 237.25 87.84 234.27 87.84 234.27 91.49 233.35 91.49 233.35 83.78 237.44 83.78 237.44 84.55 234.27 84.55"/><path class="cls-2" d="M196.12,85.66c0-1.18,.95-2.03,2.35-2.03s2.09,.73,2.15,.8l-.45,.55c-.17-.13-.79-.59-1.64-.59-.98,0-1.53,.51-1.53,1.21,0,.34,.14,.58,.36,.78,.26,.24,.65,.41,1.07,.6,.52,.24,1.23,.5,1.7,1,.33,.34,.58,.78,.58,1.39,0,1.28-.89,2.26-2.49,2.26-1.36,0-2.23-.75-2.31-.83l.42-.63c.22,.16,1.08,.67,1.86,.67,1.16,0,1.59-.64,1.59-1.4,0-.36-.16-.64-.4-.87-.36-.35-.9-.58-1.42-.82-.52-.24-1.02-.49-1.37-.86-.23-.24-.46-.64-.46-1.25"/></g><g><path class="cls-2" d="M231.54,31.61c0-.97-.33-1.75-1.04-2.17-.45-.26-1.05-.35-1.79-.35h-5.4v10.9h5.88c1.35,0,2.15,.3,2.22,1.52h.13v-9.91Z"/><path class="cls-2" d="M232.29,31.61c0-.97,.33-1.75,1.04-2.17,.45-.26,1.05-.35,1.79-.35h5.44v10.9h-5.91c-1.35,0-2.15,.3-2.22,1.52h-.13v-9.91Z"/><path class="cls-2" d="M241.68,29.9v11.52h-8.35l-.1,.24c-.15,.36-.41,.69-1.32,.69s-1.17-.33-1.32-.69l-.1-.24h-8.33v-11.52h-.75v.35l-.72-.22c-.08-.28-.34-.49-.65-.49-.38,0-.69,.31-.69,.69s.31,.69,.69,.69c.16,0,.31-.06,.43-.16l.94,.29v.93l-.71-.13c-.11-.25-.35-.42-.63-.42-.38,0-.69,.31-.69,.69s.31,.69,.69,.69c.2,0,.37-.08,.5-.21l.84,.15v.94l-.74-.03c-.12-.2-.34-.34-.59-.34-.38,0-.69,.31-.69,.69s.31,.69,.69,.69c.23,0,.43-.11,.55-.29l.77,.04v1.03l-.76,.03c-.12-.17-.33-.29-.56-.29-.38,0-.69,.31-.69,.69s.31,.69,.69,.69c.25,0,.47-.13,.59-.33l.73-.03v.95l-.83,.14c-.12-.13-.3-.22-.5-.22-.38,0-.69,.31-.69,.69s.31,.69,.69,.69c.28,0,.52-.17,.63-.41l.7-.12v.93l-.91,.28c-.12-.1-.27-.16-.43-.16-.38,0-.69,.31-.69,.69s.31,.69,.69,.69c.31,0,.57-.21,.65-.49l.69-.21v.9l-1,.43c-.11-.07-.24-.11-.38-.11-.38,0-.69,.31-.69,.69s.31,.69,.69,.69c.34,0,.62-.24,.67-.57l.7-.3v.82h8.62c.35,.61,.96,.93,1.88,.93s1.53-.32,1.88-.93h8.64v-12.28h-.75Z"/><path class="cls-2" d="M226.25,26.06c-1.74,0-3.16,.27-3.16,.61s1.41,.61,3.16,.61,3.16-.27,3.16-.61-1.41-.61-3.16-.61"/><path class="cls-2" d="M230.6,22.28l-1.82,1.28-.02,.13,.43,.19c.09,.04,.09,.11,.04,.15l-1.15,.96h-.11l-.81-1.2c-.06-.08-.04-.15,.06-.17l.54-.09v-.14l-1.41-1.99h-.23l-1.41,1.99v.14l.55,.09c.1,.01,.12,.09,.06,.17l-.81,1.2h-.11l-1.07-.96s-.04-.11,.04-.15l.43-.19v-.13l-1.91-1.28-.15,.06,1.11,3.4c.57-.26,1.87-.43,3.39-.44,1.52,0,2.82,.18,3.39,.44l1.12-3.4-.15-.06Z"/><path class="cls-2" d="M231.91,48.89c-1.74,0-3.16,.27-3.16,.61s1.41,.61,3.16,.61,3.15-.27,3.15-.61-1.41-.61-3.15-.61"/><path class="cls-2" d="M236.25,45.11l-1.82,1.28-.02,.13,.43,.19c.09,.04,.09,.11,.04,.15l-1.15,.97h-.11l-.81-1.21c-.06-.08-.04-.15,.06-.17l.54-.09v-.14l-1.41-1.99h-.23l-1.41,1.99v.14l.54,.09c.1,.02,.12,.09,.06,.17l-.81,1.2h-.11l-1.07-.96s-.04-.11,.04-.15l.43-.19v-.13l-1.91-1.28-.15,.06,1.11,3.4c.57-.26,1.87-.43,3.39-.44,1.52,0,2.82,.18,3.39,.44l1.11-3.4-.15-.06Z"/><path class="cls-2" d="M237.56,26.06c-1.74,0-3.16,.27-3.16,.61s1.41,.61,3.16,.61,3.16-.27,3.16-.61-1.41-.61-3.16-.61"/><path class="cls-2" d="M241.9,22.28l-1.82,1.28-.02,.13,.43,.19c.09,.04,.09,.11,.04,.15l-1.15,.96h-.11l-.81-1.2c-.06-.08-.04-.15,.06-.17l.54-.09v-.14l-1.41-1.99h-.23l-1.41,1.99v.14l.54,.09c.1,.01,.12,.09,.06,.17l-.81,1.2h-.11l-1.07-.97s-.04-.11,.04-.15l.43-.18v-.13l-1.91-1.28-.15,.06,1.11,3.4c.57-.26,1.86-.43,3.39-.44,1.52,0,2.82,.18,3.39,.44l1.11-3.4-.15-.06Z"/><path class="cls-3" d="M224.71,30.83c.3,0,.54,.06,.7,.21,.11,.11,.21,.29,.21,.49,0,.6-.45,.86-1.01,.86h-.62v-.09c.17-.01,.19-.03,.19-.29v-.79c0-.26-.02-.28-.17-.29v-.09h.7Zm-.12,1.18c0,.21,.05,.26,.17,.26,.21,0,.42-.23,.42-.65,0-.52-.26-.66-.47-.66-.05,0-.09,0-.1,.02-.01,0-.01,.06-.01,.12v.92Z"/><path class="cls-3" d="M227.44,31.59c0,.51-.35,.83-.81,.83-.49,0-.8-.35-.8-.79,0-.39,.26-.84,.83-.84,.44,0,.78,.32,.78,.8m-1.16-.04c0,.44,.16,.75,.4,.75,.21,0,.32-.2,.32-.64,0-.48-.17-.75-.38-.75-.18,0-.34,.21-.34,.63"/><path class="cls-3" d="M229.56,30.83v.09c-.18,.02-.19,.03-.19,.28l.02,.8c0,.27,.01,.27,.18,.29v.09h-.75v-.09c.18-.02,.19-.02,.18-.29v-.85h-.02l-.46,1.2h-.13l-.44-1.12h0l-.02,.53c0,.21,0,.32,0,.4,0,.09,.06,.11,.22,.12v.09h-.59v-.09c.12-.01,.16-.03,.17-.12,.01-.07,.03-.2,.04-.42l.03-.49c.02-.3,0-.33-.19-.35v-.09h.57l.42,.95,.37-.95h.58Z"/><path class="cls-3" d="M230.34,32c0,.26,.02,.28,.18,.29v.09h-.78v-.09c.16-.02,.18-.03,.18-.29v-.79c0-.26-.02-.28-.18-.29v-.09h.78v.09c-.17,.02-.18,.03-.18,.29v.79Z"/><path class="cls-3" d="M226.47,35.29h-.21l-.89-1.13h0v.44c0,.25,.01,.38,.02,.46,.01,.08,.08,.12,.24,.12v.09h-.6v-.09c.1,0,.17-.04,.18-.12,0-.07,.02-.21,.02-.46v-.44c0-.18,0-.21-.05-.28-.03-.05-.09-.07-.18-.07v-.1h.53l.8,1h0v-.32c0-.25-.01-.39-.02-.46-.01-.08-.08-.11-.24-.12v-.1h.61v.1c-.12,0-.18,.04-.2,.12,0,.07-.02,.21-.02,.46v.9Z"/><path class="cls-3" d="M227.44,35.29c-.17-.43-.39-1.03-.48-1.25-.08-.21-.13-.22-.24-.23v-.1h.78v.1h-.08c-.09,.02-.09,.04-.06,.12,.04,.13,.23,.61,.32,.84,.07-.2,.23-.66,.27-.78,.05-.15,.04-.17-.07-.18h-.07v-.1h.58v.1c-.14,.02-.17,.03-.26,.25-.01,.03-.31,.75-.49,1.24h-.18Z"/><path class="cls-3" d="M228.53,34.78c.05,.14,.19,.41,.43,.41,.12,0,.22-.08,.22-.24,0-.14-.09-.22-.24-.29l-.04-.02c-.2-.09-.42-.22-.42-.47,0-.27,.2-.49,.57-.49,.08,0,.15,0,.22,.03,.06,.01,.09,.02,.13,.03,0,.09,.03,.21,.05,.37l-.11,.02c-.05-.16-.14-.33-.33-.33-.12,0-.21,.09-.21,.21,0,.12,.09,.19,.25,.26l.05,.02c.22,.1,.41,.22,.41,.51s-.24,.51-.61,.51c-.1,0-.2-.02-.26-.04-.07-.03-.12-.04-.15-.06-.02-.11-.05-.24-.08-.4l.11-.03Z"/><path class="cls-3" d="M225.4,37.77c0,.26,.02,.28,.18,.29v.09h-.78v-.09c.17-.02,.18-.03,.18-.29v-.79c0-.26-.02-.28-.18-.29v-.09h.78v.09c-.17,.02-.18,.03-.18,.29v.79Z"/><path class="cls-3" d="M226.35,37.8c0,.12,0,.19,.05,.21,.04,.02,.09,.02,.17,.02s.18,0,.23-.07c.04-.05,.08-.11,.12-.24l.1,.02c-.02,.09-.07,.34-.09,.42h-1.19v-.09c.18-.01,.2-.03,.2-.29v-.79c0-.26-.02-.28-.18-.29v-.09h.78v.09c-.17,.01-.19,.03-.19,.29v.82Z"/><path class="cls-3" d="M227.69,37.8c0,.12,0,.19,.05,.21,.04,.02,.09,.02,.17,.02s.18,0,.23-.07c.04-.05,.08-.11,.12-.24l.1,.02c-.01,.09-.07,.34-.09,.42h-1.19v-.09c.18-.01,.2-.03,.2-.29v-.79c0-.26-.02-.28-.18-.29v-.09h.78v.09c-.17,.01-.19,.03-.19,.29v.82Z"/><path class="cls-3" d="M228.84,38.17c-.17-.43-.39-1.03-.48-1.25-.08-.21-.13-.22-.24-.23v-.09h.78v.09h-.08c-.09,.02-.09,.04-.06,.12,.04,.14,.23,.61,.32,.84,.07-.2,.23-.66,.27-.78,.05-.15,.03-.17-.07-.18h-.07v-.1h.58v.09c-.14,.02-.17,.03-.26,.25-.01,.03-.31,.75-.49,1.24h-.18Z"/><path class="cls-3" d="M235.3,30.83v.09c-.18,.02-.19,.03-.19,.28l.02,.8c0,.27,.01,.27,.18,.29v.09h-.75v-.09c.18-.02,.19-.02,.19-.29v-.85h-.02l-.46,1.2h-.13l-.44-1.12h0l-.02,.53c0,.21,0,.32,0,.4,0,.09,.06,.11,.22,.12v.09h-.59v-.09c.12-.01,.16-.03,.17-.12,.01-.07,.03-.2,.04-.42l.03-.49c.02-.3,0-.33-.19-.35v-.09h.56l.42,.95,.37-.95h.58Z"/><path class="cls-3" d="M236.08,32c0,.26,.02,.28,.18,.29v.09h-.78v-.09c.16-.02,.18-.03,.18-.29v-.79c0-.26-.02-.28-.18-.29v-.09h.78v.09c-.17,.02-.18,.03-.18,.29v.79Z"/><path class="cls-3" d="M237.86,32.4h-.21l-.89-1.13h0v.44c0,.25,0,.38,.02,.46,.01,.08,.08,.12,.24,.12v.09h-.6v-.09c.1,0,.17-.04,.18-.12,0-.07,.02-.21,.02-.46v-.44c0-.18,0-.21-.05-.28-.03-.05-.1-.07-.18-.07v-.1h.53l.8,1h0v-.32c0-.25-.01-.38-.02-.46-.01-.08-.08-.12-.24-.12v-.1h.61v.1c-.12,0-.18,.04-.2,.12,0,.07-.02,.21-.02,.46v.9Z"/><path class="cls-3" d="M238.87,32.29h.07c.09-.02,.09-.05,.06-.13l-.09-.24h-.39l-.07,.23c-.03,.1-.03,.13,.08,.14h.07v.1h-.56v-.09c.12-.02,.16-.03,.24-.23l.48-1.24,.17-.03,.16,.45c.1,.29,.21,.57,.3,.82,.08,.21,.12,.22,.24,.24v.09h-.76v-.09Zm-.3-.52h.31l-.15-.46h0l-.15,.46Z"/><path class="cls-3" d="M235.28,34.89c0,.26,.02,.28,.22,.29v.09h-.84v-.09c.19-.02,.21-.03,.21-.29v-1.05h-.04c-.16,0-.23,.03-.27,.07-.03,.04-.06,.1-.09,.23h-.1c.01-.2,.02-.37,.03-.49h.07c.04,.06,.06,.06,.12,.06h.96c.06,0,.08-.01,.11-.06h.07c0,.1,.02,.31,.03,.48h-.1c-.04-.14-.06-.2-.1-.24-.04-.04-.12-.06-.24-.06h-.06v1.05Z"/><path class="cls-3" d="M236.54,34.89c0,.26,.02,.28,.18,.29v.09h-.78v-.09c.16-.02,.18-.03,.18-.29v-.79c0-.26-.02-.28-.18-.29v-.09h.78v.09c-.17,.02-.18,.03-.18,.29v.79Z"/><path class="cls-3" d="M238.53,34.47c0,.52-.35,.83-.81,.83-.49,0-.8-.35-.8-.79,0-.39,.26-.84,.83-.84,.44,0,.78,.32,.78,.8m-1.16-.04c0,.44,.16,.75,.4,.75,.21,0,.32-.2,.32-.64,0-.48-.17-.75-.38-.75-.18,0-.34,.21-.34,.63"/><path class="cls-3" d="M235.99,36.59v.09c-.18,.02-.19,.03-.19,.28l.02,.8c0,.27,.01,.27,.18,.29v.09h-.75v-.09c.18-.02,.19-.02,.18-.29v-.85h-.02l-.46,1.2h-.13l-.44-1.12h0l-.02,.53c0,.21,0,.32,0,.4,0,.09,.06,.11,.22,.12v.09h-.59v-.09c.12-.01,.16-.03,.17-.12,.01-.07,.03-.2,.04-.42l.03-.49c.02-.3,0-.33-.19-.35v-.09h.57l.42,.95,.37-.95h.58Z"/><path class="cls-3" d="M236.36,36.98c0-.26-.02-.28-.18-.29v-.09h1.14s.02,.22,.03,.4h-.11c-.02-.11-.05-.18-.09-.22-.04-.04-.12-.05-.25-.05h-.04c-.09,0-.1,0-.1,.08v.46h.12c.21,0,.21-.02,.24-.2h.11v.57h-.11c-.02-.21-.03-.23-.24-.23h-.12v.39c0,.12,0,.18,.05,.21,.04,.02,.09,.02,.17,.02,.1,0,.2-.01,.25-.07,.04-.04,.08-.13,.12-.25l.11,.02c-.01,.12-.06,.36-.08,.43h-1.22v-.09c.18-.02,.2-.03,.2-.29v-.79Z"/><path class="cls-3" d="M238.3,38.06h.07c.09-.02,.09-.05,.06-.13l-.09-.24h-.39l-.07,.23c-.03,.1-.03,.13,.08,.14h.07v.1h-.56v-.09c.12-.02,.16-.03,.24-.23l.48-1.24,.17-.03,.16,.45c.1,.29,.21,.57,.3,.82,.08,.21,.12,.22,.24,.24v.09h-.76v-.09Zm-.3-.52h.31l-.15-.46h0l-.15,.46Z"/><path class="cls-2" d="M229.74,57.49c0,.35-.28,.63-.63,.63s-.63-.28-.63-.63,.28-.63,.63-.63,.63,.28,.63,.63"/><path class="cls-2" d="M236.12,58.53c0,.35-.28,.63-.63,.63s-.63-.28-.63-.63,.28-.63,.63-.63,.63,.28,.63,.63"/><path class="cls-2" d="M232.51,13.11c0,.35-.28,.63-.63,.63s-.63-.28-.63-.63,.28-.63,.63-.63,.63,.28,.63,.63"/><path class="cls-2" d="M247.47,19c-.02,.35-.31,.62-.65,.6-.35-.01-.62-.31-.6-.65,.02-.35,.31-.62,.65-.6,.35,.01,.62,.31,.6,.65"/><path class="cls-2" d="M215.95,45.98c.24,.35,.36,.72,.36,1.11,0,.44-.15,.79-.93,1.34l-2.27,1.62-.42-.6s2.32-1.65,2.36-1.68c.4-.28,.57-.48,.57-.8,0-.2-.07-.42-.22-.63-.23-.33-.52-.43-.78-.43-.23,0-.48,.16-.93,.48l-2.13,1.45-.41-.59,2.03-1.38c.57-.4,1.02-.67,1.43-.67,.61,0,1.05,.4,1.33,.79"/><polygon class="cls-2" points="208.7 41.54 213.02 40.03 213.25 40.68 210.78 43.7 213.91 42.47 214.14 43.1 209.87 44.74 209.63 44.09 212.11 41.07 208.93 42.18 208.7 41.54"/><rect class="cls-2" x="208.08" y="37.77" width="4.57" height=".73" transform="translate(-3.32 31.3) rotate(-8.44)"/><polygon class="cls-2" points="207.92 32.66 207.93 31.9 212.44 33.73 212.41 34.49 207.78 35.87 207.79 35.11 211.54 34.05 207.92 32.66"/><path class="cls-2" d="M212.04,22.44c-.64,0-.94,.37-1.36,1.11l-.54,.96,4.02,2.18,.35-.63-1.67-.91,.1-.18c.28-.51,.38-.59,1.1-.53l1.3,.12,.37-.68-1.5-.13c-.3-.03-.54-.05-.73,0-.06,.02-.14,.06-.22,.11,.02-.08,.05-.16,.05-.24,0-.13-.02-.26-.06-.37-.09-.27-.28-.49-.57-.65-.22-.12-.43-.18-.65-.18m-.81,1.38c.27-.49,.46-.67,.74-.67,.1,0,.24,.02,.37,.1,.17,.09,.3,.25,.35,.42,.02,.07,.03,.13,.03,.2,0,.27-.15,.55-.31,.83l-.09,.17-1.29-.69,.2-.36Z"/><rect class="cls-2" x="218.35" y="15.29" width=".73" height="4.57" transform="translate(34.04 136.07) rotate(-37.28)"/><polygon class="cls-2" points="219.55 14.2 222.51 12.66 222.8 13.21 221.65 13.81 223.47 17.31 222.82 17.65 221 14.15 219.84 14.75 219.55 14.2"/><polygon class="cls-2" points="226.92 11.27 227.69 11.06 227.07 14.11 227.58 15.85 226.88 16.05 226.39 14.33 224.22 12.06 224.97 11.84 226.53 13.47 226.92 11.27"/><polygon class="cls-2" points="240.86 17.52 243.18 13.58 245.37 14.86 245.05 15.4 243.49 14.48 242.85 15.57 244.32 16.44 244.01 16.97 242.54 16.1 241.49 17.88 240.86 17.52"/><polygon class="cls-2" points="252.6 27.69 254.27 25.7 254.53 26.49 253.29 27.91 255.13 28.32 255.37 29.06 252.85 28.46 251.07 30.6 250.81 29.82 252.16 28.25 250.14 27.79 249.9 27.04 252.6 27.69"/><polygon class="cls-2" points="251.3 32.18 255.85 31.81 256.06 34.34 255.43 34.39 255.29 32.58 254.03 32.69 254.17 34.39 253.56 34.43 253.42 32.74 251.36 32.91 251.3 32.18"/><path class="cls-2" d="M253.31,36.26c-.53,0-1.01,.14-1.4,.42-.69,.5-.81,1.22-.81,1.64,0,1.54,1.45,2.16,2.54,2.16,.52,0,1-.14,1.38-.42,.77-.56,.81-1.39,.81-1.66,0-1.35-1.24-2.14-2.52-2.14m.36,3.48c-.89,0-1.93-.49-1.93-1.38,0-.32,.11-.76,.52-1.05,.27-.2,.62-.3,1.02-.3,.45,0,1.27,.13,1.7,.72,.15,.2,.22,.44,.22,.69,0,.35-.14,.77-.52,1.04-.27,.19-.62,.29-1.01,.29"/><path class="cls-2" d="M250.66,21.05c-.46,0-.95,.15-1.43,.45-.88,.56-1.2,1.36-1.2,1.94,0,.38,.1,.75,.32,1.09,.49,.77,1.22,.96,1.71,.95,.47,0,.97-.16,1.44-.46,.57-.36,1.19-1.02,1.19-1.93,0-.37-.11-.74-.32-1.08-.4-.63-1.03-.96-1.72-.96m-.71,3.72c-.41,0-.78-.17-1.04-.57-.13-.21-.19-.43-.2-.65,0-.52,.32-1.05,.92-1.43,.4-.25,.79-.38,1.13-.38,.44,0,.8,.19,1.04,.57,.14,.22,.21,.46,.21,.7,0,.51-.32,1-.9,1.37-.41,.26-.81,.39-1.17,.39"/><path class="cls-2" d="M238.2,11.64c-.95,0-1.78,.64-2.12,1.78-.07,.25-.12,.5-.12,.75,0,.46,.08,.82,.26,1.16,.42,.77,1.2,1.04,1.79,1.04,.33,0,.65-.08,.94-.24,.77-.42,1.28-1.4,1.28-2.33,0-.41-.08-.79-.26-1.12-.37-.67-1.06-1.03-1.78-1.03m-.24,4.07c-.33,0-.81-.16-1.08-.65-.13-.23-.19-.52-.19-.82,0-.82,.54-1.97,1.54-1.97,.56,0,1.26,.42,1.26,1.45,0,.66-.46,1.98-1.54,1.98"/><polygon class="cls-2" points="212.89 28.21 213.5 28.38 212.81 30.89 208.39 29.68 209.14 27.14 209.74 27.31 209.19 29.14 210.41 29.47 210.88 27.81 211.47 27.98 211 29.63 212.38 30.01 212.89 28.21"/><path class="cls-2" d="M214.05,18.66c.63-.71,1.28-.66,1.28-.66l.11,.6s-.5,.02-.89,.46c-.17,.19-.26,.39-.26,.57,0,.15,.06,.28,.17,.38,.32,.28,.86-.03,1.2-.17,.26-.11,.63-.26,1-.26,.28,0,.56,.08,.82,.31,.3,.27,.46,.61,.46,.97,0,.39-.15,.73-.45,1.07-.58,.65-1.37,.72-1.37,.72l-.16-.61c.46-.1,.81-.29,1.02-.52,.17-.19,.25-.39,.25-.58,0-.17-.07-.33-.21-.46-.11-.1-.25-.14-.41-.14-.29,0-.65,.17-.93,.29-.55,.23-1.14,.41-1.66-.05-.27-.24-.41-.54-.41-.87,0-.35,.14-.73,.44-1.06"/><path class="cls-2" d="M250.08,42.17l1.73,.78-.09,.2c-.23,.53-.33,.62-1.05,.62h-1.31l-.31,.71h1.51c.3,0,.54,0,.73-.08,.06-.02,.13-.06,.19-.11,0,.04-.02,.08-.02,.12,0,.17,.03,.33,.09,.48,.21,.48,.77,.72,1.18,.72,.73,0,1.01-.44,1.36-1.24,.01-.03,.42-.98,.42-.98l-4.15-1.87-.29,.66Zm2.7,2.71c-.21,0-.56-.12-.69-.46-.03-.09-.05-.17-.05-.26,0-.25,.12-.51,.24-.78l.08-.18,1.32,.59-.15,.35c-.24,.56-.4,.74-.76,.74"/><path class="cls-2" d="M247.68,46.49c-.47,.59-.83,1.12-.83,1.81,0,.58,.27,1.24,.93,1.78,.44,.35,.94,.54,1.46,.54,.64,0,1.15-.19,1.94-1.18l.72-.91-3.57-2.85-.65,.81Zm1.63,3.44c-.36,0-.7-.14-1.06-.42-.36-.29-.74-.74-.74-1.31,0-.4,.22-.78,.55-1.19l.3-.38,2.61,2.08-.2,.25c-.48,.61-.82,.97-1.46,.97"/><path class="cls-2" d="M258.09,34.94c0-14.41-11.74-26.13-26.17-26.13s-26.17,11.72-26.17,26.13c0,8.64,4.27,16.7,11.42,21.59,.7,2.62,3.1,4.55,5.95,4.55,.77,0,1.52-.15,2.23-.42,.96,.32,1.95,.58,2.93,.78-.28,.79-.68,1.55-1.07,2.2h.02s-.02,0-.02,0l.54,.54c.14-.07,.3-.12,.47-.12,.54,0,.98,.44,.98,.98s-.44,.98-.98,.98c-.47,0-.88-.3-1.1-.62,0,0-.13,.44-.13,1.02,0,1.88,2.04,4.02,4.89,4.93,2.84-.88,4.89-3.04,4.89-4.92,0-.65-.13-1.02-.13-1.02-.22,.26-.57,.62-1.11,.62s-.98-.44-.98-.98,.44-.98,.98-.98c.19,0,.36,.06,.51,.15l.53-.53h.02c-.3-.71-.52-1.37-.66-2,4.71-.63,8.68-2.62,11.83-5.95h0c6.57-4.99,10.34-12.57,10.34-20.8m-34.98,25.41c-2.97,0-5.39-2.42-5.39-5.4,0-.93,.24-1.81,.65-2.58,.28,.25,.57,.51,.88,.78-.26,.55-.41,1.17-.41,1.82,0,1.62,.82,2.96,2.37,3.87,.89,.52,1.89,1,2.96,1.41-.35,.07-.7,.1-1.06,.1m8.8-7.86c-1.12,0-2.23-.11-3.31-.31-1.04-2.05-3.18-3.37-5.5-3.37-.57,0-1.12,.08-1.64,.23-4.44-3.3-7.09-8.55-7.09-14.09,0-9.67,7.87-17.54,17.54-17.54s17.54,7.87,17.54,17.54-7.87,17.54-17.54,17.54m3.9,.31c-.52,.75-.84,1.79-.93,2.85-1.66-.43-3.17-1-4.48-1.6,.25-.48,.96-.83,1.51-.83,1.34,0,2.64-.15,3.9-.42m-5.56,.34c-.22,.17-.4,.37-.53,.59-.66-.32-1.49-.74-2.04-1.04,.77,.17,1.78,.39,2.57,.46m-7.15-3.6c1.8,0,3.49,.93,4.48,2.41-.87-.22-1.72-.51-2.55-.86h-.03c-.58-.28-1.2-.42-1.85-.42-1.44,0-2.71,.71-3.5,1.79-.33-.18-.66-.38-.99-.58,.98-1.41,2.6-2.33,4.43-2.33m12.41,13.78c-.96,0-1.76,.68-1.76,1.73s.8,1.73,1.76,1.73c.15,0,.28-.02,.42-.06-.2,1.45-1.89,3.08-4.07,3.8-2.16-.72-3.85-2.36-4.08-3.8,.13,.04,.27,.06,.41,.06,1.04,0,1.76-.73,1.76-1.73s-.75-1.7-1.72-1.73c.3-.54,.58-1.12,.79-1.73,1.2,.21,2.38,.32,3.48,.32,.9,0,1.77-.05,2.63-.13,.11,.5,.28,1.01,.48,1.55-.03,0-.07,0-.1,0m-3.01-2.14c-3.51,0-7.89-1.19-10.9-2.97-.91-.54-2-1.54-2-3.25,0-.46,.09-.9,.25-1.31,1.12,.93,2.28,1.8,3.01,2.2,.17,.09,.26,.14,.46,.14,.47,0,.85-.38,.85-.85,0-.36-.19-.65-.52-.79-.62-.27-1.92-.81-3.33-1.54,.65-.86,1.67-1.41,2.82-1.41,.53,0,1.03,.11,1.51,.34l.96,.56c3.06,1.87,10.93,6.66,20.43,4.03-3.61,3.26-8.05,4.86-13.54,4.86m14.73-6c-4.25,1.51-8.22,1.4-11.61,.65,.11-1.51,.74-3.13,1.69-3.43,7.46-2.31,12.89-9.26,12.89-17.46,0-10.08-8.21-18.28-18.31-18.28s-18.31,8.2-18.31,18.28c0,5.61,2.62,10.93,7.03,14.39-1.05,.46-1.94,1.2-2.58,2.13-.34-.23-.66-.46-.96-.71l-.17,.17c.2,.24,.51,.56,.88,.91-.54,.91-.86,1.98-.86,3.11,0,.18,.01,.35,.03,.52-6.56-4.78-10.46-12.38-10.46-20.53,0-14.01,11.39-25.4,25.4-25.4s25.4,11.39,25.4,25.4c0,8.02-3.67,15.39-10.06,20.24"/></g></svg>